<?xml version="1.0" standalone="no"?>
<!DOCTYPE svg PUBLIC "-//W3C//DTD SVG 20010904//EN"
 "http://www.w3.org/TR/2001/REC-SVG-20010904/DTD/svg10.dtd">
<svg version="1.0" xmlns="http://www.w3.org/2000/svg"
 width="1024.000000pt" height="1024.000000pt" viewBox="0 0 1024.000000 1024.000000"
 preserveAspectRatio="xMidYMid meet">

<g transform="translate(0.000000,1024.000000) scale(0.100000,-0.100000)"
fill="#000000" stroke="none">
<path d="M5683 9504 c-171 -83 -206 -313 -68 -446 22 -21 54 -45 72 -53 l33
-16 1 -507 c0 -279 4 -529 9 -557 4 -27 8 -44 9 -37 0 6 14 12 31 12 17 0 31
-6 31 -12 1 -7 5 10 9 37 5 28 9 274 9 547 l1 497 55 16 c74 21 162 106 189
183 46 132 -14 276 -144 342 -59 30 -168 27 -237 -6z m192 -104 c92 -45 116
-174 46 -254 -49 -56 -147 -66 -206 -22 -39 30 -74 94 -75 135 0 45 39 109 83
136 51 30 97 32 152 5z"/>
<path d="M3375 9467 c-107 -52 -168 -146 -169 -262 -1 -105 47 -186 144 -244
19 -11 43 -21 53 -21 16 0 17 -32 17 -540 l0 -540 -845 0 -845 0 0 229 c0 126
3 243 6 260 5 26 15 35 55 52 58 25 124 94 145 151 20 54 22 141 5 192 -32 92
-151 176 -250 176 -100 0 -215 -90 -245 -191 -20 -67 -20 -102 0 -170 19 -63
81 -130 150 -161 l44 -19 0 -403 0 -403 -29 -39 c-16 -21 -52 -66 -80 -99 -67
-78 -67 -125 1 -125 23 0 42 17 110 100 l83 101 5 127 5 127 843 3 842 2 1
-137 c0 -76 4 -156 8 -178 5 -22 9 -31 10 -19 1 16 8 21 31 21 17 0 30 -5 31
-11 1 -6 5 0 9 14 4 14 8 352 9 753 1 647 3 727 16 727 54 0 172 106 195 176
8 21 14 69 13 105 0 80 -36 154 -98 203 -54 43 -87 56 -159 62 -51 4 -69 1
-111 -19z m191 -128 c32 -29 64 -94 64 -129 0 -40 -35 -105 -69 -130 -134 -94
-294 54 -221 205 28 58 80 87 148 82 38 -3 59 -10 78 -28z m-1802 -562 c43
-25 76 -77 76 -121 0 -79 -76 -156 -152 -156 -74 0 -152 88 -141 159 8 52 39
99 81 121 49 25 88 25 136 -3z"/>
<path d="M8754 9051 c-73 -33 -134 -126 -134 -206 0 -50 23 -106 63 -151 l39
-44 -40 -48 c-22 -26 -65 -81 -96 -122 l-56 -74 0 -431 1 -430 -346 -3 -345
-2 0 325 0 325 28 10 c49 18 74 34 108 70 108 110 107 274 -2 384 -55 56 -105
76 -189 76 -59 0 -78 -5 -122 -30 -195 -112 -182 -386 22 -486 l55 -26 0 -324
0 -324 -572 0 c-315 0 -568 -4 -562 -8 18 -12 34 -70 21 -76 -7 -2 241 -5 551
-5 l562 -1 0 -164 c0 -171 4 -203 24 -187 16 13 49 17 64 8 9 -7 12 29 12 167
l0 176 358 0 357 0 139 -139 139 -139 -17 -41 c-23 -59 -20 -109 10 -169 46
-93 138 -138 231 -114 62 16 91 38 127 96 78 125 13 277 -136 317 -38 10 -53
10 -94 -4 l-49 -16 -137 142 -138 142 0 421 0 422 46 63 c26 35 71 92 101 127
47 54 59 62 89 62 68 0 157 67 188 142 75 180 -122 370 -300 289z m167 -130
c29 -29 39 -47 39 -70 0 -123 -160 -167 -216 -60 -41 80 16 167 110 169 20 0
40 -11 67 -39z m-1090 -312 c44 -15 67 -36 90 -81 25 -49 24 -94 -4 -142 -42
-73 -127 -96 -201 -53 -113 64 -93 240 30 277 40 12 46 12 85 -1z m1230 -1472
c45 -30 59 -84 32 -129 -29 -50 -62 -64 -110 -50 -73 22 -96 118 -40 169 42
39 72 41 118 10z"/>
<path d="M2255 8907 c-4 -13 -17 -29 -31 -36 -29 -13 -32 -41 -5 -48 10 -2 24
-16 30 -29 14 -31 39 -31 50 0 5 13 19 26 30 29 28 7 27 35 -2 48 -13 6 -27
20 -32 32 -14 30 -33 32 -40 4z"/>
<path d="M6560 8860 c-53 -32 -73 -66 -78 -130 -5 -68 12 -107 63 -145 75 -58
181 -35 230 49 30 51 31 96 6 152 -38 83 -146 119 -221 74z m118 -102 c28 -28
1 -98 -38 -98 -44 0 -70 59 -40 95 15 18 61 20 78 3z"/>
<path d="M4625 8826 c-69 -32 -106 -92 -107 -172 -1 -72 38 -138 102 -171 l45
-24 5 -367 5 -367 25 -2 c14 0 30 -1 37 -2 6 -1 14 -9 16 -18 3 -10 5 158 6
372 l2 390 40 28 c54 37 94 121 85 179 -9 52 -27 86 -68 126 -30 28 -43 33
-99 37 -44 4 -74 1 -94 -9z m130 -121 c31 -30 32 -66 2 -101 -17 -20 -33 -27
-57 -27 -39 0 -80 40 -80 77 0 68 86 101 135 51z"/>
<path d="M5295 8800 c-23 -24 -25 -30 -13 -35 9 -4 18 -15 21 -26 6 -24 25
-25 34 -1 4 9 13 22 21 28 12 9 10 15 -10 37 l-25 26 -28 -29z"/>
<path d="M4210 8726 c0 -7 -10 -20 -22 -29 l-23 -15 28 -26 c15 -14 31 -26 34
-26 6 0 53 48 53 55 0 8 -51 55 -60 55 -6 0 -10 -6 -10 -14z"/>
<path d="M3062 8430 c-23 -29 -23 -30 -5 -54 28 -39 43 -40 74 -4 l29 31 -28
28 c-34 35 -41 35 -70 -1z"/>
<path d="M6324 8328 c-23 -11 -44 -48 -44 -77 0 -29 46 -71 78 -71 31 0 65 30
76 66 9 29 -11 69 -41 83 -29 13 -41 13 -69 -1z"/>
<path d="M1021 8005 c-17 -20 -31 -39 -31 -43 0 -12 64 -72 76 -72 13 0 74 63
74 76 0 13 -63 74 -77 74 -6 0 -25 -16 -42 -35z"/>
<path d="M9052 7987 c-18 -18 -32 -40 -32 -48 0 -8 16 -31 36 -50 l36 -34 34
39 c19 22 34 45 34 52 0 10 -64 74 -73 74 -2 0 -17 -15 -35 -33z"/>
<path d="M6858 7830 c-28 -28 -34 -40 -26 -48 7 -7 17 -12 24 -12 6 0 14 -7
18 -15 7 -19 35 -19 42 0 3 8 14 17 25 20 27 9 24 21 -14 59 l-32 34 -37 -38z"/>
<path d="M3906 7799 c-21 -16 -26 -29 -26 -64 0 -35 5 -48 26 -64 57 -45 134
-8 134 64 0 72 -77 109 -134 64z"/>
<path d="M5805 7774 c-172 -35 -544 -117 -724 -160 -36 -9 -74 -18 -85 -20
-22 -4 -42 -8 -231 -49 -111 -24 -192 -43 -350 -80 -66 -16 -277 -63 -340 -76
-22 -5 -71 -16 -110 -25 -38 -9 -92 -20 -119 -25 -26 -4 -63 -13 -81 -19 -17
-6 -41 -12 -51 -14 -89 -18 -283 -61 -344 -76 -41 -10 -111 -26 -155 -36 -102
-21 -93 -19 -140 -32 -22 -6 -56 -14 -75 -17 -19 -3 -51 -10 -70 -15 -19 -5
-48 -11 -63 -14 -16 -3 -43 -10 -60 -15 -18 -6 -48 -13 -68 -15 -68 -9 -158
-36 -221 -68 -84 -42 -197 -157 -237 -241 -65 -137 -61 -4 -61 -1970 0 -1278
3 -1801 11 -1839 22 -104 97 -229 191 -320 69 -67 140 -110 237 -143 92 -31
73 -31 2314 -27 1991 3 1884 -1 2019 68 140 73 280 245 328 404 27 91 29 122
29 406 l1 251 103 6 c179 10 299 82 399 238 73 114 73 114 76 601 3 378 1 445
-13 500 -30 115 -97 210 -199 282 -87 61 -162 87 -273 94 l-93 5 0 432 c0 482
-6 548 -62 659 -92 183 -282 324 -458 341 -8 1 -93 2 -188 3 l-172 2 0 303 c1
258 -1 311 -16 353 -29 87 -55 128 -128 199 -144 142 -315 190 -521 149z m235
-310 c58 -28 103 -65 129 -108 19 -30 20 -50 21 -307 l1 -274 -940 -1 c-518
-1 -941 1 -941 5 0 4 5 12 11 18 16 16 3 60 -21 73 -14 8 -39 7 -85 -1 -68
-11 -85 -26 -85 -68 0 -19 -6 -21 -54 -21 -37 0 -58 5 -67 16 -11 13 -25 15
-79 9 -36 -4 -74 -12 -85 -18 -15 -9 -153 -11 -535 -7 l-515 5 70 22 c68 21
162 45 315 78 41 10 98 23 125 30 28 7 95 23 150 35 55 12 161 35 235 52 74
17 146 33 160 35 14 2 99 22 190 43 91 22 257 60 370 85 113 25 254 57 313 71
60 14 120 28 135 30 15 3 52 11 82 19 30 8 120 28 200 45 158 33 255 54 426
94 61 15 129 29 150 32 22 3 66 12 99 19 87 20 170 16 225 -11z m-3484 -897
c23 -15 66 -38 95 -50 l54 -22 950 -3 c523 -1 1445 -3 2050 -5 l1100 -2 59
-30 c79 -40 149 -113 180 -189 l25 -61 -1 -437 -1 -438 -261 0 c-223 0 -272
-3 -337 -19 -86 -22 -183 -75 -233 -128 l-34 -37 -12 44 c-14 52 -67 161 -103
215 -33 48 -110 129 -156 163 -20 15 -38 29 -41 32 -33 34 -235 106 -270 97
-11 -3 -20 -1 -20 4 0 24 -234 -12 -322 -50 -117 -50 -265 -176 -313 -265 -11
-20 -22 -36 -25 -36 -3 0 -15 17 -27 38 -86 148 -290 281 -472 308 -20 3 -41
7 -47 9 -6 1 -60 -3 -120 -10 -175 -21 -314 -91 -431 -218 -130 -141 -187
-299 -187 -517 -1 -132 21 -225 78 -338 160 -317 725 -878 1174 -1165 l43 -27
62 42 c103 69 286 206 382 286 126 105 471 454 525 531 l45 64 6 -114 c4 -63
12 -132 19 -154 55 -183 212 -361 380 -433 79 -34 167 -42 440 -42 l263 0 -6
-279 c-5 -262 -7 -281 -29 -333 -47 -112 -145 -193 -269 -221 -69 -17 -205
-18 -2029 -15 -1839 3 -1958 4 -2000 21 -100 39 -195 135 -227 230 -17 49 -18
147 -21 1572 -3 1428 2 2039 17 2019 3 -5 25 -22 47 -37z m4958 -1547 c63 -24
110 -71 125 -127 16 -56 15 -784 -1 -837 -16 -54 -93 -131 -144 -145 -25 -7
-203 -11 -504 -11 l-465 0 -60 29 c-94 44 -156 120 -195 238 -26 79 -29 477
-4 573 35 136 92 214 197 265 l72 35 462 0 c442 0 465 -1 517 -20z"/>
<path d="M5976 7255 c-24 -18 -24 -99 0 -126 20 -22 62 -25 89 -6 14 11 17 23
13 65 -3 28 -11 58 -18 67 -16 19 -59 19 -84 0z"/>
<path d="M5726 7195 c-32 -7 -63 -19 -68 -27 -8 -13 -4 -75 6 -86 15 -15 145
6 171 28 22 18 18 56 -7 80 -24 22 -21 22 -102 5z"/>
<path d="M5445 7133 c-59 -7 -75 -14 -90 -36 -12 -19 -13 -30 -4 -57 l12 -33
62 5 c81 7 119 25 123 60 2 15 -5 35 -15 47 -17 21 -26 22 -88 14z"/>
<path d="M5106 7060 c-58 -11 -83 -54 -53 -92 16 -22 30 -23 104 -15 48 6 66
13 78 30 46 65 -11 100 -129 77z"/>
<path d="M5981 7001 c-17 -17 -21 -34 -21 -79 0 -66 18 -92 63 -92 45 0 60 25
55 97 -4 69 -10 78 -50 88 -19 5 -32 1 -47 -14z"/>
<path d="M4860 7005 c-8 -2 -32 -6 -53 -10 -68 -11 -98 -64 -59 -103 17 -17
27 -18 88 -10 38 5 77 17 87 25 22 21 22 65 -1 86 -18 16 -29 18 -62 12z"/>
<path d="M4501 6930 c-46 -7 -71 -30 -71 -64 0 -46 26 -57 101 -45 100 17 99
17 99 50 0 67 -21 77 -129 59z"/>
<path d="M2875 3358 c-2 -7 -5 -24 -7 -38 -3 -21 -9 -26 -43 -30 -32 -4 -41
-9 -43 -27 -3 -20 1 -23 26 -23 50 0 62 -9 62 -46 0 -29 3 -34 24 -34 21 0 25
5 28 38 3 35 5 37 41 40 32 3 37 7 37 28 0 21 -4 24 -39 24 -39 0 -40 1 -43
37 -2 27 -8 39 -21 41 -9 2 -19 -2 -22 -10z"/>
<path d="M6815 4874 c-103 -25 -200 -90 -249 -168 -83 -129 -96 -285 -36 -411
106 -222 370 -316 583 -209 68 35 155 125 192 199 28 55 30 69 32 173 1 113 1
113 -38 192 -66 132 -171 209 -314 230 -87 12 -96 12 -170 -6z m128 -110 l77
-7 0 -100 0 -100 100 7 100 6 0 -105 0 -105 -102 0 -103 0 3 -101 c4 -92 2
-101 -13 -95 -9 3 -54 6 -100 6 l-84 0 -3 96 -3 97 -97 -2 -98 -2 0 69 c0 38
-3 84 -6 101 l-6 31 106 0 106 0 0 105 c0 121 -13 110 123 99z"/>
<path d="M982 7282 c-132 -54 -200 -223 -143 -356 26 -60 92 -122 152 -143
l49 -18 0 -542 0 -542 -22 -6 c-87 -25 -158 -95 -183 -180 -19 -67 -19 -100 1
-163 21 -63 60 -112 121 -148 42 -26 58 -29 128 -29 85 1 125 16 186 72 27 24
63 97 74 146 l5 27 338 0 338 0 -4 40 c-3 28 0 40 9 40 7 0 10 2 7 5 -3 3
-160 8 -349 11 -295 5 -345 8 -354 21 -59 91 -74 109 -115 129 -25 13 -53 26
-62 28 -17 5 -18 40 -18 550 l0 545 43 19 c98 44 166 166 154 275 -12 98 -96
202 -185 227 -54 15 -121 11 -170 -8z m181 -132 c70 -61 76 -154 16 -216 -48
-49 -99 -61 -152 -35 -60 29 -100 92 -94 148 8 76 72 133 149 133 38 0 54 -6
81 -30z m-27 -1595 c42 -17 56 -31 78 -72 45 -89 -20 -201 -121 -210 -157 -14
-212 206 -69 277 49 24 65 25 112 5z"/>
<path d="M1817 7074 c-4 -4 -7 -20 -7 -35 0 -24 -4 -28 -32 -31 -28 -2 -33 -7
-33 -28 0 -21 5 -26 32 -28 28 -3 32 -7 35 -35 2 -27 7 -32 28 -32 21 0 26 5
28 33 3 26 8 32 26 32 13 0 29 7 36 15 19 23 4 45 -29 45 -26 0 -30 4 -33 33
-2 23 -8 33 -23 35 -12 2 -24 0 -28 -4z"/>
<path d="M7933 6993 c-181 -55 -252 -296 -128 -440 35 -41 123 -93 157 -93 17
0 18 -30 19 -617 1 -340 5 -663 9 -718 3 -55 7 -82 8 -61 2 39 2 40 21 20 23
-25 28 -41 45 -137 12 -68 11 -77 -3 -80 -9 -3 152 -5 358 -6 l373 -1 117 107
c64 58 151 139 194 180 l77 74 0 474 c0 451 1 474 18 479 36 12 80 62 96 109
28 83 -7 161 -88 198 -156 71 -312 -82 -236 -230 20 -40 58 -76 91 -86 18 -6
19 -22 19 -456 l0 -449 -42 -38 c-43 -37 -150 -137 -242 -224 l-51 -48 -337 0
-338 0 0 749 0 749 53 30 c182 103 219 306 80 446 -72 73 -173 99 -270 69z
m147 -125 c76 -39 110 -129 76 -197 -22 -41 -81 -89 -118 -96 -86 -16 -178 63
-178 154 0 82 73 155 160 160 9 1 36 -9 60 -21z m1107 -508 c14 -29 4 -59 -30
-84 -22 -16 -31 -18 -52 -8 -35 16 -52 55 -37 87 22 48 96 51 119 5z"/>
<path d="M1494 6656 c-18 -14 -19 -28 -16 -458 3 -394 5 -444 20 -455 12 -10
79 -13 256 -13 133 0 246 4 251 8 6 4 12 21 14 37 1 17 7 33 13 36 22 14 -47
19 -249 19 l-213 0 0 404 c0 354 -2 407 -16 420 -19 20 -35 20 -60 2z"/>
<path d="M672 6318 c-7 -7 -12 -18 -12 -24 0 -7 -10 -14 -22 -16 -32 -5 -34
-26 -3 -38 15 -6 29 -19 32 -30 7 -28 30 -25 37 5 4 16 13 25 26 25 26 0 26
30 1 37 -11 3 -22 16 -25 29 -7 27 -16 30 -34 12z"/>
<path d="M8473 5681 c-32 -26 -44 -61 -23 -61 6 0 20 -11 32 -25 28 -32 36
-31 77 10 l35 35 -37 35 c-20 19 -40 35 -44 35 -4 -1 -23 -13 -40 -29z"/>
<path d="M1913 5234 c-3 -8 -16 -20 -29 -25 -29 -10 -31 -29 -4 -36 10 -3 22
-13 25 -23 9 -28 36 -34 42 -9 3 11 16 25 29 29 25 10 24 40 -2 40 -7 0 -18 9
-24 20 -13 24 -28 26 -37 4z"/>
<path d="M1163 4912 c-2 -10 -14 -22 -25 -27 -28 -13 -27 -29 3 -35 16 -3 24
-12 24 -25 0 -28 29 -25 33 3 2 14 10 22 23 22 25 0 25 30 0 37 -11 3 -21 13
-24 24 -6 24 -27 25 -34 1z"/>
<path d="M8930 4687 c-37 -22 -66 -49 -89 -85 l-34 -52 -351 -1 c-193 0 -342
-4 -332 -8 14 -5 16 -10 7 -15 -9 -6 -9 -11 -1 -21 14 -17 5 -34 -18 -37 -9
-2 140 -5 333 -8 l350 -5 7 -49 c12 -88 108 -197 187 -212 l31 -6 2 -414 c1
-228 2 -435 3 -461 l0 -48 -134 -3 c-79 -1 -140 -7 -148 -14 -10 -8 -13 -64
-13 -249 l0 -239 -682 -1 c-376 0 -676 -3 -668 -7 20 -9 27 -71 8 -74 -7 0 25
-4 72 -9 47 -4 352 -7 678 -8 l592 -1 -2 -172 -3 -172 -58 -29 c-133 -68 -192
-231 -128 -355 44 -85 149 -152 239 -152 89 1 183 64 229 154 66 131 3 302
-135 363 l-52 23 2 422 3 423 138 5 c108 4 140 8 147 20 6 9 10 215 10 507 l0
491 31 11 c95 33 169 147 169 259 0 77 -21 128 -77 186 -54 55 -104 76 -188
76 -62 0 -78 -4 -125 -33z m200 -99 c80 -55 99 -140 47 -215 -34 -49 -60 -64
-119 -66 -51 -2 -85 17 -122 67 -29 38 -29 124 0 163 32 43 82 73 124 73 22 0
51 -9 70 -22z m-274 -2415 c32 -20 64 -83 64 -123 0 -72 -62 -138 -138 -147
-51 -6 -53 -5 -96 39 -25 24 -48 56 -51 71 -16 64 25 144 90 173 35 17 96 11
131 -13z"/>
<path d="M1113 4602 c-28 -4 -72 -48 -80 -80 -8 -33 21 -90 53 -102 45 -17 90
-12 122 15 l30 25 383 0 c276 1 379 4 366 11 -17 10 -17 12 -2 29 12 13 13 20
5 25 -9 6 -9 10 1 16 8 5 -155 9 -377 9 -374 0 -392 1 -408 19 -21 23 -63 38
-93 33z"/>
<path d="M1392 4202 c-42 -35 -41 -62 4 -102 l36 -32 34 33 c19 18 34 40 34
49 0 14 -59 80 -70 80 -3 0 -20 -13 -38 -28z"/>
<path d="M1886 3839 c-51 -40 -20 -139 45 -139 40 0 79 40 79 80 0 38 -39 80
-73 80 -13 0 -36 -9 -51 -21z"/>
<path d="M1004 3813 c-55 -32 -72 -48 -94 -91 -32 -61 -26 -155 14 -207 56
-73 142 -100 229 -70 57 19 51 23 210 -135 l106 -105 3 -338 c3 -322 4 -339
22 -353 16 -11 76 -14 313 -14 l293 0 0 -182 0 -182 -73 -75 c-39 -42 -109
-116 -154 -164 -68 -73 -89 -90 -131 -102 -92 -28 -163 -136 -147 -224 23
-122 133 -198 247 -170 64 15 131 77 147 134 23 83 9 142 -49 208 -38 44 -49
25 109 195 l114 122 657 0 c624 0 658 1 673 18 14 15 17 40 16 133 0 63 -3
107 -7 98 -5 -10 -18 -16 -39 -15 -37 1 -43 -11 -43 -91 l0 -53 -608 0 -609 0
-6 207 c-5 181 -8 209 -24 220 -13 10 -89 13 -310 13 l-293 0 0 328 1 327
-155 150 c-122 117 -153 153 -146 165 15 24 11 118 -6 153 -23 46 -64 86 -103
103 -46 19 -120 18 -157 -3z m147 -119 c35 -37 31 -89 -9 -125 -36 -33 -60
-36 -101 -14 -63 32 -57 131 9 159 40 17 73 10 101 -20z m724 -2041 c37 -55
-8 -153 -70 -153 -33 0 -81 35 -95 70 -12 29 -11 37 6 69 34 65 121 72 159 14z"/>
<path d="M7985 3775 c-50 -49 -15 -135 55 -135 72 0 109 96 54 139 -36 28 -79
27 -109 -4z"/>
<path d="M8373 3394 c-19 -8 -16 -28 7 -49 20 -18 21 -18 35 1 8 10 14 26 12
34 -2 15 -32 23 -54 14z m32 -24 c3 -5 1 -10 -4 -10 -6 0 -11 5 -11 10 0 6 2
10 4 10 3 0 8 -4 11 -10z"/>
<path d="M1007 3044 c-4 -4 -7 -20 -7 -36 0 -22 -4 -28 -22 -28 -55 -1 -64
-46 -11 -52 22 -2 29 -9 33 -33 8 -44 38 -46 42 -3 3 29 7 33 36 36 26 3 32 7
32 28 0 13 -6 25 -12 25 -7 1 -20 2 -28 3 -8 0 -17 14 -20 31 -5 28 -28 44
-43 29z"/>
<path d="M7808 3022 c-7 -10 -21 -21 -32 -25 -15 -6 -16 -10 -6 -22 7 -8 16
-12 21 -9 5 3 12 -2 15 -10 7 -18 34 -22 34 -6 0 6 6 10 14 10 26 0 24 25 -5
53 -26 26 -29 26 -41 9z"/>
<path d="M4842 2351 l-34 -17 96 -91 96 -91 0 -69 0 -69 -75 -82 c-82 -90 -92
-120 -51 -147 26 -17 54 -11 74 17 8 11 43 52 78 92 l64 73 0 121 0 121 -90
79 c-49 43 -97 78 -107 79 -10 1 -33 -7 -51 -16z"/>
<path d="M7876 2321 c-34 -36 -29 -63 17 -86 32 -16 32 -16 60 15 15 17 27 35
27 40 0 8 -61 60 -72 60 -2 0 -17 -13 -32 -29z"/>
<path d="M4012 2318 c-2 -21 -61 -26 -63 -5 -5 44 -18 -99 -18 -200 l-1 -121
-34 -12 c-89 -29 -166 -118 -186 -216 -46 -219 187 -388 391 -284 104 54 156
206 113 333 -21 62 -83 131 -139 153 l-45 19 -1 90 c-1 89 -14 276 -17 243z
m28 -466 c77 -38 105 -142 57 -213 -54 -81 -134 -101 -204 -50 -72 52 -93 138
-50 202 50 74 125 97 197 61z"/>
<path d="M6580 2298 c-14 -5 -33 -7 -42 -4 -17 4 -18 -13 -18 -279 0 -282 0
-284 22 -299 20 -14 88 -16 544 -16 l522 0 -14 -47 c-19 -63 -18 -103 6 -166
37 -100 127 -166 237 -175 83 -6 138 15 193 74 55 60 83 125 84 194 0 75 -19
125 -68 178 -48 53 -103 80 -178 88 -46 5 -66 1 -124 -23 l-69 -28 -530 0
-530 0 -5 256 -5 256 -25 -9z m1356 -600 c68 -60 81 -128 37 -196 -65 -99
-201 -95 -253 9 -53 103 16 219 131 219 40 0 55 -5 85 -32z"/>
<path d="M5520 2072 c0 -5 -12 -14 -27 -21 l-26 -12 32 -30 c35 -32 51 -37 51
-15 0 7 9 16 20 19 11 3 20 12 20 19 0 13 -12 21 -62 46 -5 2 -8 0 -8 -6z"/>
<path d="M3360 1890 c0 -5 -7 -10 -15 -10 -23 0 -18 -32 9 -58 l24 -23 26 26
c32 32 32 39 1 59 -28 18 -45 21 -45 6z"/>
<path d="M4797 1503 c-3 -16 -15 -32 -29 -38 -29 -13 -30 -37 0 -50 13 -5 25
-20 29 -32 9 -37 53 -21 53 19 0 13 8 18 25 18 20 0 25 5 25 25 0 19 -5 25
-21 25 -14 0 -24 10 -32 30 -14 38 -43 39 -50 3z"/>
</g>
</svg>
